<svg width="81" height="51" viewBox="0 0 81 51" fill="none" xmlns="http://www.w3.org/2000/svg">
<path d="M80.4166 31.6033L69.5564 36.6167L57.6333 21.7331L70.9483 0H80.4166V31.6033Z" fill="#AB1F24"/>
<path d="M80.4168 50.1627V31.6033L69.5566 36.6166L80.4168 50.1627Z" fill="#EF7032"/>
<path d="M57.6331 21.7331L40.2026 0H70.9481L57.6331 21.7331Z" fill="#EF7032"/>
<path d="M52.8417 29.5525L57.6131 21.7531L40.2026 0.0200195V26.0422H40.3189C44.7373 26.02 49.0742 27.2332 52.8417 29.5452" fill="#FFD35D"/>
<path d="M40.3189 26.0294H40.2026V50.1627L52.8417 29.5524C49.0711 27.2453 44.7375 26.0261 40.3189 26.0294Z" fill="#AB1F24"/>
<path d="M62.1942 40.0214L69.5566 36.6148L57.6371 21.733L52.8457 29.5579C56.9241 32.0494 60.1774 35.6912 62.1978 40.0268" fill="#EF7032"/>
<path d="M52.8417 29.5525L40.2026 50.1828L62.1883 40.0214C60.168 35.6858 56.9147 32.044 52.8362 29.5525" fill="#D31F26"/>
<path d="M69.5563 36.6149L62.1938 40.0214C63.6733 43.2039 64.4387 46.6723 64.436 50.1828H80.4256L69.5563 36.6149Z" fill="#FFD35D"/>
<path d="M40.2026 50.1628H64.416C64.4206 46.656 63.6623 43.1903 62.1938 40.0068L40.2081 50.1664" fill="#AB1F24"/>
<path d="M0.00878906 31.6033L10.869 36.6167L22.7921 21.7331L9.47899 0H0.00878906V31.6033Z" fill="#AB1F24"/>
<path d="M0.00878906 50.1627V31.6033L10.869 36.6166L0.00878906 50.1627Z" fill="#EF7032"/>
<path d="M22.7922 21.7331L40.2026 0H9.479L22.7922 21.7331Z" fill="#EF7032"/>
<path d="M27.5657 29.5525L22.7925 21.7531L40.203 0.0200195V26.0422H40.0867C35.6695 26.0253 31.3346 27.2381 27.5657 29.5452" fill="#D31F26"/>
<path d="M40.0864 26.0294H40.2027V50.1627L27.5854 29.5524C31.3481 27.2455 35.6747 26.0261 40.0864 26.0294Z" fill="#EF7032"/>
<path d="M18.2316 40.0214L10.8691 36.6148L22.7923 21.733L27.5655 29.5324C23.4907 32.0318 20.2436 35.6807 18.2316 40.0214Z" fill="#EF7032"/>
<path d="M27.5654 29.5525L40.2026 50.1828L18.2314 40.0214C20.2386 35.6828 23.4873 32.0391 27.5654 29.5525Z" fill="#D31F26"/>
<path d="M10.8693 36.6149L18.2318 40.0214C16.7523 43.2039 15.9869 46.6723 15.9896 50.1828H0L10.8602 36.6149" fill="#FFD35D"/>
<path d="M40.2026 50.1628H15.9893C15.9825 46.6536 16.748 43.186 18.2315 40.0068L40.2026 50.1664" fill="#AB1F24"/>
</svg>
