<svg width="20" height="20" viewBox="0 0 20 20" fill="none" xmlns="http://www.w3.org/2000/svg">
<path fill-rule="evenodd" clip-rule="evenodd" d="M10.0003 1.66666C10.2738 1.66666 10.5298 1.80081 10.6855 2.02565L18.1855 12.859C18.3194 13.0524 18.3653 13.2934 18.3119 13.5226C18.2585 13.7517 18.1107 13.9476 17.905 14.0618L10.405 18.2285C10.1533 18.3682 9.84732 18.3682 9.59566 18.2285L2.09563 14.0618C1.88997 13.9476 1.74219 13.7517 1.68877 13.5226C1.63534 13.2934 1.68126 13.0524 1.81517 12.859L9.31516 2.02565C9.47083 1.80081 9.72691 1.66666 10.0003 1.66666ZM3.70899 13.0515L9.16699 16.0837V5.16771L3.70899 13.0515Z" fill="#D42124"/>
</svg>
