<svg width="20" height="20" viewBox="0 0 20 20" fill="none" xmlns="http://www.w3.org/2000/svg">
<path fill-rule="evenodd" clip-rule="evenodd" d="M6.25 4.99791V5V18.75H13.75L13.6982 4.375C13.4006 2.60143 11.8581 1.25 10 1.25C8.14188 1.25 6.59941 2.60143 6.30184 4.375L6.25 4.99791ZM7.57875 4.375H12.4213C12.1437 3.29672 11.1649 2.5 10 2.5C8.83509 2.5 7.85628 3.29672 7.57875 4.375Z" fill="#D42124"/>
<path d="M19.375 14.375C19.375 16.7913 17.4162 18.75 15 18.75V4.375C17.4162 4.375 19.375 6.33375 19.375 8.75V14.375Z" fill="#D42124"/>
<path d="M5 4.375C2.58375 4.375 0.625 6.33375 0.625 8.75V14.375C0.625 16.7913 2.58375 18.75 5 18.75V4.375Z" fill="#D42124"/>
</svg>
