<svg width="20" height="20" viewBox="0 0 20 20" fill="none" xmlns="http://www.w3.org/2000/svg">
<path d="M18.3337 9.90357V11.6667C18.3337 11.7927 18.2661 12.0204 17.9033 12.3322C17.5434 12.6417 16.9737 12.9582 16.1973 13.2405C14.6515 13.8027 12.4606 14.1667 10.0003 14.1667C7.54006 14.1667 5.3492 13.8027 3.8033 13.2405C3.02693 12.9582 2.45727 12.6417 2.09729 12.3322C1.7346 12.0204 1.66699 11.7927 1.66699 11.6667V9.90357C2.12424 10.1848 2.65543 10.4299 3.23373 10.6402C5.00551 11.2845 7.39798 11.6667 10.0003 11.6667C12.6027 11.6667 14.9952 11.2845 16.7669 10.6402C17.3452 10.4299 17.8764 10.1848 18.3337 9.90357Z" fill="#D42124"/>
<path fill-rule="evenodd" clip-rule="evenodd" d="M18.3337 7.49999V4.99999C18.3337 4.29004 17.9012 3.74632 17.4267 3.37237C16.9428 2.99102 16.2943 2.68403 15.5672 2.44166C14.1042 1.95399 12.1361 1.66666 10.0003 1.66666C7.86462 1.66666 5.8965 1.95399 4.4335 2.44166C3.70636 2.68403 3.05779 2.99102 2.5739 3.37237C2.0994 3.74632 1.66699 4.29003 1.66699 4.99999V7.49999C1.66699 7.62597 1.7346 7.85376 2.09729 8.16557C2.45727 8.47507 3.02693 8.79157 3.8033 9.07382C5.3492 9.63599 7.54006 9.99999 10.0003 9.99999C12.4606 9.99999 14.6515 9.63599 16.1973 9.07382C16.9737 8.79157 17.5434 8.47507 17.9033 8.16557C18.2661 7.85376 18.3337 7.62597 18.3337 7.49999ZM3.33366 4.99999C3.33366 4.99999 3.33381 5.00486 3.3362 5.01273C3.33903 5.02202 3.34602 5.04036 3.36288 5.06785C3.39826 5.12546 3.47039 5.2121 3.60553 5.31859C3.88068 5.53543 4.33046 5.76716 4.96055 5.97719C6.21201 6.39434 7.9939 6.66666 10.0003 6.66666C12.0067 6.66666 13.7887 6.39434 15.0401 5.97719C15.6702 5.76716 16.12 5.53543 16.3952 5.3186C16.5302 5.2121 16.6024 5.12546 16.6377 5.06785C16.6547 5.04036 16.6616 5.02202 16.6644 5.01273C16.6669 5.00476 16.667 5.00017 16.667 5.00017C16.667 5.00017 16.667 4.99565 16.6644 4.98725C16.6616 4.97797 16.6547 4.95961 16.6377 4.93213C16.6024 4.87452 16.5302 4.78788 16.3952 4.68139C16.12 4.46455 15.6702 4.23282 15.0401 4.02279C13.7887 3.60564 12.0067 3.33332 10.0003 3.33332C7.9939 3.33332 6.21201 3.60564 4.96055 4.02279C4.33046 4.23282 3.88068 4.46455 3.60553 4.68139C3.47039 4.78788 3.39826 4.87452 3.36288 4.93213C3.34602 4.95961 3.33903 4.97796 3.3362 4.98725C3.33364 4.99565 3.33366 4.99999 3.33366 4.99999Z" fill="#D42124"/>
<path d="M16.7669 14.8068C17.3452 14.5966 17.8764 14.3515 18.3337 14.0702V15C18.3337 15.7099 17.9012 16.2537 17.4267 16.6276C16.9428 17.009 16.2943 17.3159 15.5672 17.5583C14.1042 18.046 12.1361 18.3333 10.0003 18.3333C7.86462 18.3333 5.8965 18.046 4.4335 17.5583C3.70636 17.3159 3.05779 17.009 2.5739 16.6276C2.0994 16.2537 1.66699 15.7099 1.66699 15V14.0702C2.12424 14.3515 2.65543 14.5966 3.23373 14.8068C5.00551 15.4512 7.39798 15.8333 10.0003 15.8333C12.6027 15.8333 14.9952 15.4512 16.7669 14.8068Z" fill="#D42124"/>
</svg>
