<svg width="24" height="24" viewBox="0 0 24 24" fill="none" xmlns="http://www.w3.org/2000/svg">
<path fill-rule="evenodd" clip-rule="evenodd" d="M23.296 5.7634C20.9204 8.13893 15.3448 13.7135 13.9849 15.0689C13.6911 15.3616 13.3413 15.5929 12.9659 15.7437C11.8753 16.1963 9.21487 17.2399 8.43271 17.2924C7.96676 17.3237 7.50976 17.1516 7.17902 16.8209C6.84828 16.4902 6.6762 16.0331 6.70749 15.5672C6.76 14.785 7.80363 12.1268 8.24834 11.0407C8.40366 10.6552 8.63495 10.3055 8.92882 10.0128L18.2365 0.703943C18.6868 0.253643 19.2991 0 19.936 0C20.5729 0 21.1853 0.253643 21.6356 0.703943L23.296 2.36436C23.7463 2.81466 23.9999 3.42698 23.9999 4.06388C23.9999 4.70078 23.7463 5.3131 23.296 5.7634ZM8.3869 15.613C9.15118 15.5169 11.3848 14.585 12.3234 14.1951C12.3267 14.194 12.3301 14.1928 12.3323 14.1917C12.5078 14.1213 12.6664 14.0163 12.7994 13.8833L12.8005 13.8822C14.1626 12.5268 19.736 6.9534 22.1104 4.57787C22.2468 4.44155 22.3239 4.25718 22.3239 4.06388C22.3239 3.87057 22.2468 3.6862 22.1104 3.54989L20.45 1.88947C20.3137 1.75315 20.1293 1.67606 19.936 1.67606C19.7427 1.67606 19.5584 1.75315 19.422 1.88947L10.1132 11.1983C9.97915 11.3313 9.87412 11.491 9.80372 11.6665L9.80149 11.6709C9.41599 12.6118 8.48299 14.8476 8.3869 15.613Z" fill="#5D616C"/>
<path fill-rule="evenodd" clip-rule="evenodd" d="M21.0823 6.79148C21.4086 7.11887 21.4086 7.64962 21.0823 7.97701C20.7549 8.3044 20.2242 8.3044 19.8968 7.97701L16.0229 4.10309C15.6955 3.7757 15.6955 3.24495 16.0229 2.91756C16.3503 2.59128 16.881 2.59128 17.2084 2.91756L21.0823 6.79148Z" fill="#5D616C"/>
<path fill-rule="evenodd" clip-rule="evenodd" d="M14.243 13.6307C14.5704 13.957 14.5704 14.4888 14.243 14.8151C13.9167 15.1425 13.3848 15.1425 13.0586 14.8151L9.18463 10.9412C8.85724 10.6149 8.85724 10.083 9.18463 9.75677C9.5109 9.42938 10.0428 9.42938 10.369 9.75677L14.243 13.6307Z" fill="#5D616C"/>
<path fill-rule="evenodd" clip-rule="evenodd" d="M8.10081 2.21143C8.56341 2.21143 8.93884 2.58686 8.93884 3.04945C8.93884 3.51205 8.56341 3.88748 8.10081 3.88748H4.19002C2.80113 3.88748 1.67593 5.01267 1.67593 6.40157V19.81C1.67593 20.4771 1.94075 21.1162 2.41228 21.5877C2.88381 22.0593 3.52295 22.3241 4.19002 22.3241H18.7158C19.3829 22.3241 20.022 22.0593 20.4936 21.5877C20.9651 21.1162 21.2299 20.4771 21.2299 19.81V15.8992C21.2299 15.4366 21.6054 15.0612 22.0679 15.0612C22.5305 15.0612 22.906 15.4366 22.906 15.8992V19.81C22.906 20.9218 22.4646 21.9866 21.6791 22.7733C20.8925 23.5588 19.8276 24.0002 18.7158 24.0002H4.19002C3.07823 24.0002 2.01338 23.5588 1.22675 22.7733C0.441239 21.9866 -0.00012207 20.9218 -0.00012207 19.81V6.40157C-0.00012207 4.08749 1.87594 2.21143 4.19002 2.21143H8.10081Z" fill="#5D616C"/>
</svg>
