<svg width="21" height="20" viewBox="0 0 21 20" fill="none" xmlns="http://www.w3.org/2000/svg">
<path fill-rule="evenodd" clip-rule="evenodd" d="M14.25 1.4585C15.745 1.4585 16.9584 2.67183 16.9584 4.16683C16.9584 5.66183 15.745 6.87516 14.25 6.87516C12.755 6.87516 11.5417 5.66183 11.5417 4.16683C11.5417 2.67183 12.755 1.4585 14.25 1.4585ZM14.25 2.7085C13.445 2.7085 12.7917 3.36183 12.7917 4.16683C12.7917 4.97183 13.445 5.62516 14.25 5.62516C15.055 5.62516 15.7084 4.97183 15.7084 4.16683C15.7084 3.36183 15.055 2.7085 14.25 2.7085Z" fill="#5D616C"/>
<path fill-rule="evenodd" clip-rule="evenodd" d="M14.25 13.125C15.745 13.125 16.9584 14.3383 16.9584 15.8333C16.9584 17.3283 15.745 18.5417 14.25 18.5417C12.755 18.5417 11.5417 17.3283 11.5417 15.8333C11.5417 14.3383 12.755 13.125 14.25 13.125ZM14.25 14.375C13.445 14.375 12.7917 15.0283 12.7917 15.8333C12.7917 16.6383 13.445 17.2917 14.25 17.2917C15.055 17.2917 15.7084 16.6383 15.7084 15.8333C15.7084 15.0283 15.055 14.375 14.25 14.375Z" fill="#5D616C"/>
<path fill-rule="evenodd" clip-rule="evenodd" d="M8.83333 7.29199C10.3283 7.29199 11.5417 8.50533 11.5417 10.0003C11.5417 11.4953 10.3283 12.7087 8.83333 12.7087C7.33833 12.7087 6.125 11.4953 6.125 10.0003C6.125 8.50533 7.33833 7.29199 8.83333 7.29199ZM8.83333 8.54199C8.02833 8.54199 7.375 9.19533 7.375 10.0003C7.375 10.8053 8.02833 11.4587 8.83333 11.4587C9.63833 11.4587 10.2917 10.8053 10.2917 10.0003C10.2917 9.19533 9.63833 8.54199 8.83333 8.54199Z" fill="#5D616C"/>
<path fill-rule="evenodd" clip-rule="evenodd" d="M18.8334 3.54199C19.1784 3.54199 19.4584 3.82199 19.4584 4.16699C19.4584 4.51199 19.1784 4.79199 18.8334 4.79199H16.3334C15.9884 4.79199 15.7084 4.51199 15.7084 4.16699C15.7084 3.82199 15.9884 3.54199 16.3334 3.54199H18.8334Z" fill="#5D616C"/>
<path fill-rule="evenodd" clip-rule="evenodd" d="M18.8334 15.2085C19.1784 15.2085 19.4584 15.4885 19.4584 15.8335C19.4584 16.1785 19.1784 16.4585 18.8334 16.4585H16.3334C15.9884 16.4585 15.7084 16.1785 15.7084 15.8335C15.7084 15.4885 15.9884 15.2085 16.3334 15.2085H18.8334Z" fill="#5D616C"/>
<path fill-rule="evenodd" clip-rule="evenodd" d="M2.16669 10.625C1.82169 10.625 1.54169 10.345 1.54169 10C1.54169 9.655 1.82169 9.375 2.16669 9.375H6.75002C7.09502 9.375 7.37502 9.655 7.37502 10C7.37502 10.345 7.09502 10.625 6.75002 10.625H2.16669Z" fill="#5D616C"/>
<path fill-rule="evenodd" clip-rule="evenodd" d="M10.0834 3.54199C10.4284 3.54199 10.7084 3.82199 10.7084 4.16699C10.7084 4.51199 10.4284 4.79199 10.0834 4.79199H2.16669C1.82169 4.79199 1.54169 4.51199 1.54169 4.16699C1.54169 3.82199 1.82169 3.54199 2.16669 3.54199H10.0834Z" fill="#5D616C"/>
<path fill-rule="evenodd" clip-rule="evenodd" d="M10.0834 15.2085C10.4284 15.2085 10.7084 15.4885 10.7084 15.8335C10.7084 16.1785 10.4284 16.4585 10.0834 16.4585H2.16669C1.82169 16.4585 1.54169 16.1785 1.54169 15.8335C1.54169 15.4885 1.82169 15.2085 2.16669 15.2085H10.0834Z" fill="#5D616C"/>
<path fill-rule="evenodd" clip-rule="evenodd" d="M13 10.625C12.655 10.625 12.375 10.345 12.375 10C12.375 9.655 12.655 9.375 13 9.375H18.8333C19.1783 9.375 19.4583 9.655 19.4583 10C19.4583 10.345 19.1783 10.625 18.8333 10.625H13Z" fill="#5D616C"/>
</svg>
