<svg width="20" height="20" viewBox="0 0 20 20" fill="none" xmlns="http://www.w3.org/2000/svg">
<g clip-path="url(#clip0_641_26973)">
<path d="M6.37305 10C6.37305 8.88478 6.45698 7.82034 6.60914 6.83822H13.1905C13.3426 7.82034 13.4266 8.88478 13.4266 10C13.4266 11.1152 13.3426 12.1797 13.1905 13.1618H6.60914C6.45698 12.1797 6.37305 11.1152 6.37305 10Z" fill="#D42124"/>
<path d="M5.12278 10C5.12278 8.89931 5.20034 7.83594 5.34509 6.83822H1.25C1.22626 6.83822 1.20283 6.83687 1.17979 6.83434C0.820728 7.82266 0.625 8.88859 0.625 10C0.625 11.1114 0.820728 12.1773 1.17979 13.1657C1.20283 13.1631 1.22626 13.1618 1.25 13.1618H5.34509C5.20034 12.1641 5.12278 11.1007 5.12278 10Z" fill="#D42124"/>
<path d="M1.73633 14.4043C2.94257 16.636 5.03694 18.3227 7.54944 18.9973C7.103 18.4729 6.71528 17.8092 6.38963 17.0539C6.05481 16.2774 5.77675 15.3834 5.56728 14.4043H1.73633Z" fill="#D42124"/>
<path d="M12.1934 19.0625C14.82 18.4366 17.0166 16.7117 18.2638 14.4043H14.232C14.0225 15.3834 13.7444 16.2774 13.4096 17.0539C13.0703 17.8409 12.6637 18.5283 12.1934 19.0625Z" fill="#D42124"/>
<path d="M18.8023 13.2148C19.1728 12.2127 19.3751 11.1298 19.3751 10C19.3751 8.87016 19.1728 7.78725 18.8023 6.78516C18.7249 6.81925 18.6393 6.83822 18.5492 6.83822H14.4541C14.5989 7.83594 14.6764 8.89931 14.6764 10C14.6764 11.1007 14.5989 12.1641 14.4541 13.1618H18.5492C18.6393 13.1618 18.7249 13.1807 18.8023 13.2148Z" fill="#D42124"/>
<path d="M18.2638 5.59569C17.0166 3.28825 14.8199 1.56339 12.1934 0.9375C12.6636 1.47167 13.0703 2.15911 13.4096 2.94611C13.7444 3.72263 14.0225 4.61663 14.232 5.59569H18.2638Z" fill="#D42124"/>
<path d="M7.54944 1.00269C5.03694 1.67729 2.94257 3.36403 1.73633 5.59569H5.56728C5.77675 4.61662 6.05481 3.72262 6.38963 2.94611C6.71528 2.19075 7.103 1.52713 7.54944 1.00269Z" fill="#D42124"/>
<path d="M12.2604 3.43556C12.5317 4.06497 12.7658 4.79238 12.9515 5.59569H6.84668C7.03237 4.79238 7.26643 4.06497 7.53777 3.43556C7.89359 2.6103 8.30124 1.98214 8.72202 1.56932C9.14015 1.15914 9.53718 0.991661 9.89909 0.991661C10.261 0.991661 10.658 1.15914 11.0761 1.56932C11.4969 1.98214 11.9046 2.6103 12.2604 3.43556Z" fill="#D42124"/>
<path d="M6.84668 14.4043H12.9515C12.7658 15.2076 12.5317 15.935 12.2604 16.5644C11.9046 17.3897 11.4969 18.0179 11.0761 18.4307C10.658 18.8409 10.261 19.0083 9.89909 19.0083C9.53718 19.0083 9.14015 18.8409 8.72202 18.4307C8.30124 18.0179 7.89359 17.3897 7.53777 16.5644C7.26643 15.935 7.03237 15.2076 6.84668 14.4043Z" fill="#D42124"/>
</g>
<defs>
<clipPath id="clip0_641_26973">
<rect width="20" height="20" fill="white"/>
</clipPath>
</defs>
</svg>
