<svg width="20" height="20" viewBox="0 0 20 20" fill="none" xmlns="http://www.w3.org/2000/svg">
<g clip-path="url(#clip0_581_17910)">
<path fill-rule="evenodd" clip-rule="evenodd" d="M0.625 6.25C0.625 3.14341 3.14341 0.625 6.25 0.625H13.75C16.8566 0.625 19.375 3.14341 19.375 6.25V13.75C19.375 16.8566 16.8566 19.375 13.75 19.375H6.25C3.14341 19.375 0.625 16.8566 0.625 13.75V6.25ZM10.625 5.9375C10.625 5.59231 10.3452 5.3125 10 5.3125C9.65481 5.3125 9.375 5.59231 9.375 5.9375V13.75C9.375 14.0952 9.65481 14.375 10 14.375C10.3452 14.375 10.625 14.0952 10.625 13.75V5.9375ZM6.875 8.125C6.875 7.77981 6.59519 7.5 6.25 7.5C5.90481 7.5 5.625 7.77981 5.625 8.125V13.75C5.625 14.0952 5.90481 14.375 6.25 14.375C6.59519 14.375 6.875 14.0952 6.875 13.75V8.125ZM14.375 10.625C14.375 10.2798 14.0952 10 13.75 10C13.4048 10 13.125 10.2798 13.125 10.625V13.75C13.125 14.0952 13.4048 14.375 13.75 14.375C14.0952 14.375 14.375 14.0952 14.375 13.75V10.625Z" fill="#D42124"/>
</g>
<defs>
<clipPath id="clip0_581_17910">
<rect width="20" height="20" fill="white"/>
</clipPath>
</defs>
</svg>
