<svg width="20" height="20" viewBox="0 0 20 20" fill="none" xmlns="http://www.w3.org/2000/svg">
<g clip-path="url(#clip0_634_11213)">
<path d="M7.62157 3.41643C8.141 3.22877 8.7142 3.49773 8.9019 4.01716L10.702 8.99997H16C16.2652 8.99997 16.5196 9.10537 16.7071 9.29287C16.8946 9.48037 17 9.73477 17 9.99997C17 11.2813 16.6483 12.538 15.9833 13.6332C15.3183 14.7284 14.3654 15.62 13.2285 16.211C12.0917 16.802 10.8144 17.0695 9.5359 16.9846C8.2575 16.8997 7.02682 16.4654 5.97813 15.7293C4.92943 14.9931 4.10291 13.9832 3.58862 12.8097C3.07434 11.6361 2.89202 10.3439 3.06154 9.07387C3.23105 7.80384 3.7459 6.6047 4.54997 5.60711C5.35405 4.60953 6.41651 3.85178 7.62157 3.41643Z" fill="#D42124"/>
<path fill-rule="evenodd" clip-rule="evenodd" d="M10 0C4.47715 0 0 4.47715 0 10C0 15.5228 4.47715 20 10 20C15.5228 20 20 15.5228 20 10C20 4.47715 15.5228 0 10 0ZM2 10C2 5.58172 5.58172 2 10 2C14.4183 2 18 5.58172 18 10C18 14.4183 14.4183 18 10 18C5.58172 18 2 14.4183 2 10Z" fill="#D42124"/>
</g>
<defs>
<clipPath id="clip0_634_11213">
<rect width="20" height="20" fill="white"/>
</clipPath>
</defs>
</svg>
