<svg width="20" height="20" viewBox="0 0 20 20" fill="none" xmlns="http://www.w3.org/2000/svg">
<g clip-path="url(#clip0_641_26856)">
<path d="M2.49926 0.625C1.65713 0.625 0.845918 1.20108 0.70589 2.11217C0.597721 2.81598 0.598159 3.43037 0.706474 4.13575C0.846415 5.04706 1.65736 5.625 2.50108 5.625H4.0625V14.6875C4.0625 16.0682 5.18178 17.1875 6.5625 17.1875H8.15944C8.1875 17.4476 8.23272 17.714 8.29503 17.9942C8.48494 18.848 9.26125 19.375 10.0689 19.375H17.4246C18.2235 19.375 18.9943 18.8591 19.1923 18.0157C19.4355 16.9792 19.436 16.1329 19.1933 15.1047C18.9945 14.2625 18.2239 13.75 17.4279 13.75H10.0668C9.26097 13.75 8.48475 14.2749 8.29437 15.128C8.23166 15.4091 8.18638 15.6763 8.1585 15.9375H6.5625C5.87216 15.9375 5.3125 15.3778 5.3125 14.6875V10.3125H8.15944C8.1875 10.5726 8.23272 10.839 8.29503 11.1192C8.48494 11.973 9.26125 12.5 10.0689 12.5H17.4246C18.2235 12.5 18.9943 11.9841 19.1923 11.1407C19.4355 10.1042 19.436 9.25791 19.1933 8.22969C18.9945 7.38753 18.2239 6.875 17.4279 6.875H10.0668C9.26097 6.875 8.48475 7.39991 8.29437 8.25303C8.23166 8.53406 8.18638 8.80131 8.1585 9.0625H5.3125V5.625H6.87162C7.70775 5.625 8.51503 5.05709 8.66191 4.15338C8.779 3.43294 8.77941 2.80868 8.66288 2.09328C8.51575 1.18995 7.70806 0.625 6.87444 0.625H2.49926Z" fill="#D42124"/>
</g>
<defs>
<clipPath id="clip0_641_26856">
<rect width="20" height="20" fill="white"/>
</clipPath>
</defs>
</svg>
