<svg width="20" height="20" viewBox="0 0 20 20" fill="none" xmlns="http://www.w3.org/2000/svg">
<path fill-rule="evenodd" clip-rule="evenodd" d="M18.3337 15.8333C18.3337 17.2141 17.2144 18.3333 15.8337 18.3333H4.16699C2.78628 18.3333 1.66699 17.2141 1.66699 15.8333V4.16666C1.66699 2.78596 2.78628 1.66666 4.16699 1.66666H15.8337C17.2144 1.66666 18.3337 2.78596 18.3337 4.16666V15.8333ZM6.42292 5.24407C6.09748 4.91864 5.56984 4.91864 5.2444 5.24407C4.91897 5.56951 4.91897 6.09715 5.2444 6.42259L13.5777 14.7559C13.9032 15.0813 14.4308 15.0813 14.7562 14.7559C15.0817 14.4305 15.0817 13.9028 14.7562 13.5774L6.42292 5.24407Z" fill="#D42124"/>
</svg>
