<svg width="20" height="20" viewBox="0 0 20 20" fill="none" xmlns="http://www.w3.org/2000/svg">
<path d="M14.667 4.66667C14.667 6.13943 15.8609 7.33333 17.3337 7.33333C18.8064 7.33333 20.0003 6.13943 20.0003 4.66667C20.0003 3.1939 18.8064 2 17.3337 2C15.8609 2 14.667 3.1939 14.667 4.66667Z" fill="#D42124"/>
<path d="M14.667 16C14.667 17.4728 15.8609 18.6667 17.3337 18.6667C18.8064 18.6667 20.0003 17.4728 20.0003 16C20.0003 14.5272 18.8064 13.3333 17.3337 13.3333C15.8609 13.3333 14.667 14.5272 14.667 16Z" fill="#D42124"/>
<path d="M2.66667 13C1.19391 13 0 11.8061 0 10.3333C0 8.86057 1.19391 7.66667 2.66667 7.66667C4.13943 7.66667 5.33333 8.86057 5.33333 10.3333C5.33333 11.8061 4.13943 13 2.66667 13Z" fill="#D42124"/>
<path d="M14.0002 4.66667C14.0002 4.43837 14.0232 4.2154 14.0669 4H7.33358C5.22381 4 3.40018 5.22503 2.53516 7.00257C2.57886 7.00087 2.62279 7 2.66691 7C3.11081 7 3.53444 7.08677 3.92178 7.24427C4.62518 6.09797 5.89008 5.33333 7.33358 5.33333H14.0669C14.0232 5.11793 14.0002 4.89497 14.0002 4.66667Z" fill="#D42124"/>
<path d="M7.33358 16.6667C5.22381 16.6667 3.40018 15.4416 2.53516 13.6641C2.57886 13.6658 2.62279 13.6667 2.66691 13.6667C3.11081 13.6667 3.53444 13.5799 3.92178 13.4224C4.62518 14.5687 5.89008 15.3333 7.33358 15.3333H14.0669C14.0232 15.5487 14.0002 15.7717 14.0002 16C14.0002 16.2283 14.0232 16.4513 14.0669 16.6667H7.33358Z" fill="#D42124"/>
</svg>
