<svg width="20" height="20" viewBox="0 0 20 20" fill="none" xmlns="http://www.w3.org/2000/svg">
<g clip-path="url(#clip0_641_26852)">
<path fill-rule="evenodd" clip-rule="evenodd" d="M10 0.625C4.82234 0.625 0.625 4.82234 0.625 10C0.625 12.4611 1.5741 14.7017 3.125 16.3738V18.75C3.125 18.9159 3.19094 19.0749 3.30825 19.1922C3.42559 19.3094 3.58472 19.3752 3.75056 19.375C5.13788 19.3737 6.52494 19.3742 7.91237 19.3746H7.91616C8.61062 19.3748 9.30522 19.375 10 19.375C15.1777 19.375 19.375 15.1777 19.375 10C19.375 4.82234 15.1777 0.625 10 0.625ZM10 15C10 15.3452 9.72019 15.625 9.375 15.625C9.02981 15.625 8.75 15.3452 8.75 15C8.75 14.6548 9.02981 14.375 9.375 14.375C9.72019 14.375 10 14.6548 10 15ZM7.8125 8.375C7.8125 7.20141 8.76391 6.25 9.9375 6.25H10C11.2051 6.25 12.1875 7.23675 12.1875 8.44788C12.1875 9.6705 11.1958 10.6667 9.97916 10.6667H9.375C9.02981 10.6667 8.75 10.9465 8.75 11.2917V13.125C8.75 13.4702 9.02981 13.75 9.375 13.75C9.72019 13.75 10 13.4702 10 13.125V11.9166C11.9033 11.9053 13.4375 10.3479 13.4375 8.44788C13.4375 6.55241 11.9015 5 10 5H9.9375C8.07353 5 6.5625 6.51103 6.5625 8.375C6.5625 8.72019 6.84231 9 7.1875 9C7.53269 9 7.8125 8.72019 7.8125 8.375Z" fill="#D42124"/>
</g>
<defs>
<clipPath id="clip0_641_26852">
<rect width="20" height="20" fill="white"/>
</clipPath>
</defs>
</svg>
