<svg width="32" height="32" viewBox="0 0 32 32" fill="none" xmlns="http://www.w3.org/2000/svg">
<path fill-rule="evenodd" clip-rule="evenodd" d="M25.0917 8.79418L24.1027 25.1153C24.0045 26.7361 22.6616 27.9998 21.0385 27.9998H10.7286C9.10551 27.9998 7.76263 26.7361 7.6644 25.1153L6.67537 8.79418C6.66198 8.56423 6.74347 8.33874 6.90198 8.17018C7.06049 8.00162 7.2804 7.90674 7.51147 7.90674H24.2557C24.4867 7.90674 24.7066 8.00162 24.8651 8.17018C25.0237 8.33874 25.1051 8.56423 25.0917 8.79418ZM23.366 9.58116H8.40114L9.33658 25.0148C9.38124 25.7505 9.99072 26.3253 10.7286 26.3253H21.0385C21.7764 26.3253 22.3859 25.7505 22.4305 25.0148L23.366 9.58116Z" fill="#5D616C"/>
<path fill-rule="evenodd" clip-rule="evenodd" d="M25.9302 7.90674C26.3924 7.90674 26.7674 8.28181 26.7674 8.74395C26.7674 9.20609 26.3924 9.58116 25.9302 9.58116H5.83721C5.37507 9.58116 5 9.20609 5 8.74395C5 8.28181 5.37507 7.90674 5.83721 7.90674H25.9302Z" fill="#5D616C"/>
<path fill-rule="evenodd" clip-rule="evenodd" d="M21.0588 6.22698L21.7118 8.51423C21.7844 8.76651 21.733 9.03888 21.5756 9.24874C21.4171 9.4586 21.1693 9.5814 20.907 9.5814H10.8605C10.5982 9.5814 10.3503 9.4586 10.1918 9.24874C10.0344 9.03888 9.98309 8.76651 10.0556 8.51423L10.7087 6.22698C11.086 4.90865 12.2904 4 13.6612 4H18.1063C19.477 4 20.6815 4.90865 21.0588 6.22698ZM19.448 6.68688C19.2772 6.08744 18.7303 5.67442 18.1063 5.67442H13.6612C13.0372 5.67442 12.4903 6.08744 12.3195 6.68688L11.9701 7.90698H19.7974L19.448 6.68688Z" fill="#5D616C"/>
<path fill-rule="evenodd" clip-rule="evenodd" d="M15.0465 13.7674C15.0465 13.3052 15.4216 12.9302 15.8837 12.9302C16.3459 12.9302 16.7209 13.3052 16.7209 13.7674V21.5813C16.7209 22.0435 16.3459 22.4185 15.8837 22.4185C15.4216 22.4185 15.0465 22.0435 15.0465 21.5813V13.7674Z" fill="#5D616C"/>
<path fill-rule="evenodd" clip-rule="evenodd" d="M20.6234 21.6473C20.5776 22.1072 20.1669 22.4432 19.7069 22.3974C19.247 22.3516 18.9122 21.9408 18.9579 21.4809L19.736 13.7016C19.7817 13.2417 20.1925 12.9057 20.6524 12.9514C21.1123 12.9972 21.4483 13.408 21.4026 13.8679L20.6234 21.6473Z" fill="#5D616C"/>
<path fill-rule="evenodd" clip-rule="evenodd" d="M12.8095 21.4809C12.8553 21.9408 12.5204 22.3516 12.0605 22.3974C11.6006 22.4432 11.1898 22.1072 11.1441 21.6473L10.3649 13.8679C10.3191 13.408 10.6551 12.9972 11.115 12.9514C11.5749 12.9057 11.9857 13.2417 12.0315 13.7016L12.8095 21.4809Z" fill="#5D616C"/>
</svg>
