<svg width="40" height="40" viewBox="0 0 40 40" fill="none" xmlns="http://www.w3.org/2000/svg">
<rect x="0.5" y="0.5" width="39" height="39" rx="11.5" fill="#F9F9F9"/>
<rect x="0.5" y="0.5" width="39" height="39" rx="11.5" stroke="#E6E6E7"/>
<path d="M20 22C21.1046 22 22 21.1046 22 20C22 18.8954 21.1046 18 20 18C18.8954 18 18 18.8954 18 20C18 21.1046 18.8954 22 20 22Z" stroke="#5D616C" stroke-width="1.5"/>
<path d="M13.399 13.88L13.774 13.23C13.6268 13.1451 13.455 13.1127 13.287 13.1381C13.1189 13.1635 12.9645 13.2453 12.849 13.37L13.399 13.88ZM11.4 17.344L10.683 17.122C10.6328 17.2845 10.6394 17.4591 10.7015 17.6174C10.7636 17.7756 10.8777 17.9081 11.025 17.993L11.4 17.344ZM11.398 22.655L11.023 22.005C10.8757 22.0901 10.7617 22.2228 10.6997 22.3813C10.6377 22.5397 10.6315 22.7145 10.682 22.877L11.398 22.655ZM13.398 26.119L12.848 26.629C12.9635 26.7537 13.1179 26.8355 13.286 26.8609C13.454 26.8863 13.6258 26.8539 13.773 26.769L13.398 26.119ZM17.998 28.774H17.248C17.248 29.124 17.491 29.427 17.832 29.505L17.998 28.774ZM21.999 28.776L22.166 29.508C22.3317 29.4701 22.4797 29.3771 22.5857 29.2441C22.6916 29.1111 22.7492 28.946 22.749 28.776H21.999ZM26.6 26.12L26.225 26.77C26.3722 26.8549 26.5439 26.8873 26.712 26.8619C26.8801 26.8365 27.0345 26.7547 27.15 26.63L26.6 26.12ZM28.598 22.654L29.315 22.876C29.3651 22.7136 29.3586 22.5389 29.2965 22.3806C29.2343 22.2224 29.1203 22.0899 28.973 22.005L28.598 22.654ZM28.6 17.343L28.975 17.993C29.1223 17.9079 29.2363 17.7752 29.2983 17.6168C29.3602 17.4583 29.3665 17.2835 29.316 17.121L28.6 17.343ZM26.6 13.878L27.15 13.369C27.0345 13.2443 26.8801 13.1625 26.712 13.1371C26.5439 13.1117 26.3722 13.1441 26.225 13.229L26.6 13.878ZM22 11.225H22.75C22.7499 11.0551 22.6923 10.8903 22.5863 10.7575C22.4804 10.6247 22.3326 10.5318 22.167 10.494L22 11.225ZM18 11.223L17.833 10.491C17.6672 10.5289 17.5192 10.6219 17.4133 10.7549C17.3074 10.8879 17.2498 11.053 17.25 11.223H18ZM12.117 17.566C12.481 16.3829 13.1068 15.297 13.948 14.389L12.848 13.369C11.8539 14.442 11.1143 15.7251 10.684 17.123L12.117 17.566ZM12.855 24.125C12.5461 23.591 12.2979 23.0242 12.115 22.435L10.683 22.878C10.8987 23.5741 11.1915 24.2439 11.556 24.875L12.855 24.125ZM13.949 25.611C13.5301 25.158 13.1631 24.6596 12.855 24.125L11.556 24.875C11.9199 25.5063 12.3533 26.094 12.848 26.629L13.949 25.611ZM21.833 28.046C20.6263 28.3206 19.3733 28.3199 18.167 28.044L17.833 29.506C19.2591 29.8325 20.7404 29.8335 22.167 29.509L21.833 28.046ZM27.883 22.434C27.519 23.6171 26.8932 24.703 26.052 25.611L27.152 26.631C28.146 25.558 28.8857 24.275 29.316 22.877L27.883 22.434ZM27.145 15.875C27.46 16.422 27.705 16.988 27.885 17.565L29.317 17.122C29.1013 16.4259 28.8085 15.7561 28.444 15.125L27.145 15.875ZM26.05 14.389C26.46 14.832 26.828 15.329 27.144 15.875L28.444 15.125C28.0797 14.4936 27.6451 13.904 27.15 13.369L26.05 14.389ZM18.166 11.954C19.3726 11.6794 20.6256 11.6801 21.832 11.956L22.167 10.494C20.7409 10.1675 19.2585 10.1665 17.832 10.491L18.166 11.954ZM18.749 13.072V11.222H17.249V13.072H18.749ZM15.375 14.154L13.774 13.23L13.024 14.529L14.624 15.453L15.375 14.154ZM12.625 21.083L11.024 22.007L11.774 23.306L13.375 22.382L12.625 21.083ZM13.375 17.618L11.775 16.695L11.025 17.995L12.625 18.918L13.375 17.618ZM18.75 28.775V26.928H17.25V28.775H18.75ZM14.625 24.547L13.024 25.471L13.774 26.771L15.374 25.846L14.625 24.547ZM26.976 25.471L25.375 24.547L24.625 25.846L26.225 26.77L26.976 25.471ZM22.75 28.777V26.928H21.25V28.778L22.75 28.777ZM28.226 16.694L26.625 17.618L27.375 18.918L28.975 17.993L28.226 16.694ZM28.974 22.006L27.375 21.082L26.625 22.382L28.225 23.305L28.974 22.006ZM22.75 13.072V11.225H21.25V13.072H22.75ZM26.226 13.23L24.625 14.154L25.375 15.454L26.976 14.529L26.226 13.23ZM21.25 13.072C21.25 15.189 23.542 16.513 25.375 15.454L24.625 14.154C24.435 14.2637 24.2195 14.3215 24.0001 14.3215C23.7807 14.3215 23.5652 14.2638 23.3752 14.1541C23.1852 14.0445 23.0274 13.8868 22.9177 13.6968C22.8079 13.5069 22.7501 13.2914 22.75 13.072H21.25ZM26.625 17.618C24.792 18.677 24.792 21.323 26.625 22.382L27.375 21.082C27.185 20.9723 27.0272 20.8145 26.9175 20.6245C26.8078 20.4345 26.75 20.2189 26.75 19.9995C26.75 19.7801 26.8078 19.5646 26.9175 19.3745C27.0272 19.1845 27.185 19.0267 27.375 18.917L26.625 17.618ZM25.375 24.547C23.542 23.488 21.25 24.811 21.25 26.928H22.75C22.7501 26.7086 22.8079 26.4931 22.9177 26.3032C23.0274 26.1132 23.1852 25.9555 23.3752 25.8459C23.5652 25.7362 23.7807 25.6785 24.0001 25.6785C24.2195 25.6786 24.435 25.7363 24.625 25.846L25.375 24.547ZM18.75 26.928C18.75 24.811 16.458 23.488 14.625 24.547L15.374 25.846C15.564 25.7363 15.7805 25.6786 15.9999 25.6785C16.2192 25.6785 16.4348 25.7362 16.6248 25.8459C16.8148 25.9555 16.9726 26.1132 17.0823 26.3032C17.1921 26.4931 17.2499 26.7086 17.25 26.928H18.75ZM13.375 22.382C15.208 21.323 15.208 18.677 13.375 17.618L12.625 18.918C12.815 19.0277 12.9728 19.1855 13.0825 19.3755C13.1922 19.5656 13.2499 19.7811 13.2499 20.0005C13.2499 20.2199 13.1922 20.4355 13.0825 20.6255C12.9728 20.8155 12.815 20.9733 12.625 21.083L13.375 22.382ZM17.25 13.072C17.2499 13.2914 17.1921 13.5069 17.0823 13.6968C16.9726 13.8868 16.8148 14.0445 16.6248 14.1541C16.4348 14.2638 16.2192 14.3215 15.9999 14.3215C15.7805 14.3215 15.565 14.2637 15.375 14.154L14.625 15.454C16.458 16.512 18.75 15.189 18.75 13.072H17.25Z" fill="#5D616C"/>
</svg>
