<svg width="20" height="20" viewBox="0 0 20 20" fill="none" xmlns="http://www.w3.org/2000/svg">
<g clip-path="url(#clip0_641_26988)">
<path d="M12.0667 11.04C12.8088 10.5452 12.8088 9.45469 12.0667 8.95991L9.59962 7.31522C8.76894 6.76144 7.65625 7.35694 7.65625 8.35528V11.6447C7.65625 12.643 8.76894 13.2385 9.59962 12.6847L12.0667 11.04Z" fill="#D42124"/>
<path fill-rule="evenodd" clip-rule="evenodd" d="M8.14781 1.08272C8.22294 0.812209 8.46925 0.625 8.75 0.625H11.25C11.5308 0.625 11.7771 0.812209 11.8522 1.08272L12.3503 2.87581C12.7044 2.99257 13.0468 3.13494 13.3752 3.30075L14.9958 2.38479C15.2402 2.24664 15.5467 2.28842 15.7452 2.48695L17.513 4.25472C17.7115 4.45325 17.7533 4.75978 17.6152 5.00419L16.6992 6.62472C16.865 6.95319 17.0074 7.29559 17.1242 7.64972L18.9173 8.14781C19.1878 8.22294 19.375 8.46925 19.375 8.75V11.25C19.375 11.5308 19.1878 11.7771 18.9173 11.8522L17.1242 12.3503C17.0074 12.7044 16.8651 13.0468 16.6992 13.3752L17.6152 14.9958C17.7533 15.2402 17.7116 15.5467 17.5131 15.7452L15.7453 17.513C15.5468 17.7115 15.2402 17.7533 14.9958 17.6152L13.3753 16.6992C13.0468 16.865 12.7044 17.0074 12.3503 17.1242L11.8522 18.9173C11.7771 19.1878 11.5308 19.375 11.25 19.375H8.75C8.46925 19.375 8.22294 19.1878 8.14781 18.9173L7.64972 17.1242C7.29559 17.0074 6.95319 16.865 6.62469 16.6992L5.00422 17.6152C4.75981 17.7533 4.45328 17.7115 4.25475 17.513L2.48698 15.7452C2.28846 15.5467 2.24668 15.2402 2.38482 14.9958L3.30075 13.3752C3.13497 13.0468 2.99257 12.7044 2.87581 12.3503L1.08272 11.8522C0.812209 11.7771 0.625 11.5308 0.625 11.25V8.75C0.625 8.46925 0.812209 8.22294 1.08272 8.14781L2.87581 7.64972C2.99257 7.29559 3.13497 6.95319 3.30078 6.62469L2.38485 5.00422C2.24671 4.75981 2.28849 4.45328 2.48702 4.25475L4.25478 2.48698C4.45331 2.28846 4.75984 2.24667 5.00425 2.38482L6.62475 3.30075C6.95322 3.13497 7.29562 2.99257 7.64972 2.87581L8.14781 1.08272ZM10 4.6875C12.934 4.6875 15.3125 7.066 15.3125 10C15.3125 12.934 12.934 15.3125 10 15.3125C7.066 15.3125 4.6875 12.934 4.6875 10C4.6875 7.066 7.066 4.6875 10 4.6875Z" fill="#D42124"/>
</g>
<defs>
<clipPath id="clip0_641_26988">
<rect width="20" height="20" fill="white"/>
</clipPath>
</defs>
</svg>
