<svg width="20" height="20" viewBox="0 0 20 20" fill="none" xmlns="http://www.w3.org/2000/svg">
<g clip-path="url(#clip0_641_26860)">
<path fill-rule="evenodd" clip-rule="evenodd" d="M5.11681 3.39959C4.87997 3.41353 4.65537 3.47228 4.45141 3.56753L1.69194 0.808059C1.44786 0.56398 1.05213 0.56398 0.808056 0.808059C0.563981 1.05214 0.563981 1.44786 0.808059 1.69194L3.56753 4.45141C3.47228 4.65537 3.41353 4.87997 3.39959 5.11681L3.13231 9.66081C3.06131 10.8678 3.50987 12.0476 4.36484 12.9026L9.59737 18.1352C11.2505 19.7883 13.9307 19.7883 15.5839 18.1352L18.1352 15.5839C19.7883 13.9307 19.7883 11.2505 18.1352 9.59737L12.9026 4.36484C12.0476 3.50987 10.8678 3.06131 9.66081 3.13231L5.11681 3.39959ZM7.25869 7.25869C8.32472 6.19269 10.0531 6.19269 11.1191 7.25869C12.1851 8.32472 12.1851 10.0531 11.1191 11.1191C10.0531 12.1851 8.32472 12.1851 7.25869 11.1191C6.19269 10.0531 6.19269 8.32472 7.25869 7.25869Z" fill="#D42124"/>
</g>
<defs>
<clipPath id="clip0_641_26860">
<rect width="20" height="20" fill="white"/>
</clipPath>
</defs>
</svg>
