<svg width="20" height="20" viewBox="0 0 20 20" fill="none" xmlns="http://www.w3.org/2000/svg">
<g clip-path="url(#clip0_1088_1787)">
<path fill-rule="evenodd" clip-rule="evenodd" d="M11.1596 0.679648C10.3281 0.503254 9.46369 0.759482 8.86259 1.36057L1.36059 8.86259C0.379803 9.84338 0.379803 11.4336 1.36059 12.4143L7.58563 18.6393C8.56641 19.6202 10.1566 19.6202 11.1374 18.6393L18.6394 11.1373C19.2405 10.5363 19.4967 9.67191 19.3203 8.84031L18.2309 3.70469C18.0249 2.73363 17.2663 1.97501 16.2952 1.76903L11.1596 0.679648ZM14.9168 5.08313C14.3044 4.47069 13.3115 4.47069 12.699 5.08313C12.0866 5.69553 12.0866 6.6885 12.699 7.30094C13.3115 7.91338 14.3044 7.91338 14.9168 7.30094C15.5293 6.6885 15.5293 5.69553 14.9168 5.08313Z" fill="#D42124"/>
</g>
<defs>
<clipPath id="clip0_1088_1787">
<rect width="20" height="20" fill="white"/>
</clipPath>
</defs>
</svg>
