<svg width="20" height="20" viewBox="0 0 20 20" fill="none" xmlns="http://www.w3.org/2000/svg">
<path d="M12.5 7.8125C12.5 8.84803 11.6605 9.6875 10.625 9.6875C9.58947 9.6875 8.75 8.84803 8.75 7.8125C8.75 6.77697 9.58947 5.9375 10.625 5.9375C11.6605 5.9375 12.5 6.77697 12.5 7.8125Z" fill="#D42124"/>
<path fill-rule="evenodd" clip-rule="evenodd" d="M18.125 8.125C18.125 3.98288 14.7671 0.625 10.625 0.625C6.48287 0.625 3.125 3.98288 3.125 8.125V9.41622L1.91595 12.59C1.84277 12.7821 1.86873 12.9979 1.98537 13.1672C2.10202 13.3364 2.29444 13.4375 2.5 13.4375H3.22841L3.76009 16.3618C3.81944 16.6882 4.12337 16.9113 4.45253 16.8702L5.625 16.7236V18.75C5.625 19.0952 5.90481 19.375 6.25 19.375H14.6875C14.8756 19.375 15.0538 19.2902 15.1724 19.1443C15.2911 18.9983 15.3378 18.8067 15.2994 18.6225L14.4559 14.5741C16.6519 13.2669 18.125 10.8684 18.125 8.125ZM10.1859 2.8125C9.60459 2.8125 9.10481 3.21509 8.97353 3.77725L8.93275 3.95191C8.654 4.07588 8.39144 4.22937 8.14891 4.40834L7.98219 4.35775C7.42575 4.18891 6.83006 4.42903 6.54241 4.93106L6.10331 5.6975C5.8165 6.19809 5.90831 6.832 6.32794 7.22966L6.45837 7.35325C6.44209 7.50425 6.43375 7.6575 6.43375 7.8125C6.43375 7.9675 6.44209 8.12072 6.45834 8.27172L6.32794 8.39531C5.90831 8.79297 5.8165 9.42688 6.10331 9.92747L6.54241 10.6939C6.83006 11.1959 7.42575 11.4361 7.98219 11.2672L8.14888 11.2166C8.39141 11.3956 8.654 11.5491 8.93275 11.6731L8.97353 11.8477C9.10481 12.4099 9.60459 12.8125 10.1859 12.8125H11.0641C11.6454 12.8125 12.1452 12.4099 12.2765 11.8477L12.3172 11.6731C12.596 11.5491 12.8586 11.3956 13.1011 11.2166L13.2678 11.2672C13.8243 11.4361 14.4199 11.1959 14.7076 10.6939L15.1467 9.92747C15.4335 9.42688 15.3417 8.79297 14.9221 8.39531L14.7917 8.27172C14.8079 8.12072 14.8162 7.9675 14.8162 7.8125C14.8162 7.6575 14.8079 7.50425 14.7917 7.35325L14.9221 7.22966C15.3417 6.832 15.4335 6.19809 15.1467 5.6975L14.7076 4.93106C14.4199 4.42903 13.8243 4.18891 13.2678 4.35775L13.1011 4.40834C12.8586 4.22937 12.596 4.07588 12.3172 3.95191L12.2765 3.77725C12.1452 3.21509 11.6454 2.8125 11.0641 2.8125H10.1859Z" fill="#D42124"/>
</svg>
