<svg width="20" height="20" viewBox="0 0 20 20" fill="none" xmlns="http://www.w3.org/2000/svg">
<path fill-rule="evenodd" clip-rule="evenodd" d="M8.61024 2.07451C9.45716 1.53071 10.5435 1.53071 11.3904 2.07451L12.7483 2.94637C12.8391 3.00465 12.9395 3.04626 13.0449 3.06922L14.6216 3.4129C15.605 3.62725 16.3731 4.39536 16.5874 5.37876L16.9311 6.95543C16.9541 7.06081 16.9957 7.16126 17.0539 7.25203L17.9258 8.60991C18.4696 9.45682 18.4696 10.5432 17.9258 11.3901L17.0539 12.748C16.9957 12.8387 16.9541 12.9392 16.9311 13.0446L16.5874 14.6212C16.3731 15.6047 15.605 16.3727 14.6216 16.5871L13.0449 16.9307C12.9395 16.9537 12.8391 16.9953 12.7483 17.0536L11.3904 17.9255C10.5435 18.4692 9.45716 18.4692 8.61024 17.9255L7.25237 17.0536C7.1616 16.9953 7.06115 16.9537 6.95577 16.9307L5.37909 16.5871C4.39569 16.3727 3.62758 15.6047 3.41323 14.6212L3.06956 13.0446C3.04659 12.9392 3.00498 12.8387 2.94671 12.748L2.07484 11.3901C1.53104 10.5432 1.53104 9.45682 2.07484 8.60991L2.94671 7.25203C3.00498 7.16126 3.04659 7.06082 3.06956 6.95543L3.41323 5.37876C3.62758 4.39536 4.39569 3.62725 5.37909 3.4129L6.95577 3.06922C7.06116 3.04626 7.1616 3.00465 7.25237 2.94637L8.61024 2.07451ZM13.1511 8.85391C13.4386 8.49449 13.3803 7.97011 13.0209 7.6826C12.6615 7.39509 12.1371 7.45336 11.8496 7.81275L9.20191 11.1223L8.1766 9.69824C7.90768 9.32474 7.3869 9.23999 7.01341 9.50891C6.63991 9.77782 6.55513 10.2986 6.82405 10.6721L8.49074 12.9869C8.64299 13.1984 8.88541 13.3265 9.14583 13.3331C9.40633 13.3397 9.65491 13.2241 9.81774 13.0206L13.1511 8.85391Z" fill="#D42124"/>
</svg>
