<svg width="20" height="20" viewBox="0 0 20 20" fill="none" xmlns="http://www.w3.org/2000/svg">
<g clip-path="url(#clip0_634_11222)">
<path d="M10 5.9375C9.30966 5.9375 8.75 6.49716 8.75 7.1875C8.75 7.87784 9.30966 8.4375 10 8.4375C10.6903 8.4375 11.25 7.87784 11.25 7.1875C11.25 6.49716 10.6903 5.9375 10 5.9375Z" fill="#D42124"/>
<path d="M6.5625 13.75C6.5625 12.7145 7.40197 11.875 8.4375 11.875H11.5625C12.598 11.875 13.4375 12.7145 13.4375 13.75V14.375H6.5625V13.75Z" fill="#D42124"/>
<path fill-rule="evenodd" clip-rule="evenodd" d="M5.9375 0.625C6.28269 0.625 6.5625 0.904822 6.5625 1.25H14.0625C14.0625 0.904822 14.3423 0.625 14.6875 0.625C15.0327 0.625 15.3125 0.904822 15.3125 1.25V1.40752C17.469 1.96257 19.0625 3.92019 19.0625 6.25V14.375C19.0625 17.1364 16.8239 19.375 14.0625 19.375H5.9375C3.17606 19.375 0.9375 17.1364 0.9375 14.375V6.25C0.9375 3.70025 2.84606 1.59624 5.3125 1.28868V1.25C5.3125 0.904822 5.59231 0.625 5.9375 0.625ZM7.5 7.1875C7.5 5.80678 8.61928 4.6875 10 4.6875C11.3807 4.6875 12.5 5.80678 12.5 7.1875C12.5 8.56822 11.3807 9.6875 10 9.6875C8.61928 9.6875 7.5 8.56822 7.5 7.1875ZM8.4375 10.625C6.71163 10.625 5.3125 12.0241 5.3125 13.75V15C5.3125 15.3452 5.59231 15.625 5.9375 15.625H14.0625C14.4077 15.625 14.6875 15.3452 14.6875 15V13.75C14.6875 12.0241 13.2884 10.625 11.5625 10.625H8.4375Z" fill="#D42124"/>
</g>
<defs>
<clipPath id="clip0_634_11222">
<rect width="20" height="20" fill="white"/>
</clipPath>
</defs>
</svg>
